<svg t="1701240082205" class="icon" viewBox="0 0 1024 1024" version="1.1" xmlns="http://www.w3.org/2000/svg" p-id="11749" width="16" height="16"><path d="M896 853.333333H128a42.666667 42.666667 0 0 1 0-85.333333v-297.344C128 257.834667 299.946667 85.333333 512 85.333333s384 172.501333 384 385.322667V768a42.666667 42.666667 0 0 1 0 85.333333zM213.333333 768h597.333334v-297.344C810.666667 304.981333 676.949333 170.666667 512 170.666667s-298.666667 134.314667-298.666667 299.989333V768z m403.541334 147.498667a106.666667 106.666667 0 0 1-209.92-0.853334 15.872 15.872 0 0 1 15.616-18.645333h178.090666a16.512 16.512 0 0 1 16.213334 19.498667z" fill="currentColor" p-id="11750"></path></svg>